<?xml version="1.0" encoding="utf-8"?>
<!-- Generator: Adobe Illustrator 19.1.0, SVG Export Plug-In . SVG Version: 6.00 Build 0)  -->
<svg version="1.1" id="Layer_1" xmlns="http://www.w3.org/2000/svg" xmlns:xlink="http://www.w3.org/1999/xlink" x="0px" y="0px"
	 viewBox="0 0 500 500" style="enable-background:new 0 0 500 500;" xml:space="preserve">
<style type="text/css">
	.st0{fill:url(#SVGID_1_);}
	.st1{fill:#684C46;}
	.st2{fill:#F5DCBA;}
	.st3{fill:#0788BF;}
	.st4{fill:#46B8E3;}
	.st5{fill:#FFD14F;}
	.st6{fill:#122030;}
	.st7{fill:#FFFFFF;}
	.st8{fill:#EABE8D;}
	.st9{fill:#9C7356;}
	.st10{fill:#9B5C8F;}
</style>
<linearGradient id="SVGID_1_" gradientUnits="userSpaceOnUse" x1="-3.677478e-07" y1="250" x2="500" y2="250" gradientTransform="matrix(4.489659e-11 1 -1 4.489659e-11 500 0)">
	<stop  offset="0" style="stop-color:#0087C1"/>
	<stop  offset="1" style="stop-color:#3FB7E5"/>
</linearGradient>
<rect class="st0" width="500" height="500"/>
<g>
	<path class="st1" d="M429.6,380.2c-0.3,1-29.1,111.7-142.3,111.7c-97.8,0-144.2-85.1-144.2-85.1c-7.1,0.4-14-0.7-20.4-3.1
		c-28.7-10.5-42.5-43.4-32.6-70.9l-15.8-12.1c-61.1-46.6,112-259.6,173.2-211.4c0.3,0.2,14.6,11.8,14.6,11.8
		c22-13.3,43.8-20.6,61.4-20.6c12.6,0,23.1,3.6,30.2,11.3c15.9,17.2,10.2,50.1-11.5,83.3c4.7,4.4,8.5,10.5,11.3,16.4
		c6.9,5.3,11.4,13.4,13.6,24.6c2.5,12.4,3,30.1,4.5,37.7c5.9,2.6,3.4,1.4,9.6,4.5c6.5,3.3,14.4,7.2,23.2,15.6
		c15.6,3.9,21.5,20.4,12.4,31.7c-0.2,0.3-1.3,1.6-2.5,2.9c0.3,0.7,3.3,5.6,5.4,15.4c6.4,1.5,11.6,5.5,14.3,11.2
		C438.8,366.6,429.6,380.2,429.6,380.2z M384.7,463.8v4.6h1.8v-4.6h1.8v-1.5h-5.4v1.5H384.7z M388.9,462.4v6.1h1.6v-4.4l1.3,4.4h1.4
		l1.3-4.4v4.4h1.6v-6.1h-2.5l-1.1,3.5l-1.1-3.5H388.9z"/>
	<path class="st2" d="M166.2,338.5L166.2,338.5L166.2,338.5c2.5-6.3,3.7-11.4,3.7-11.4c2.8,8.6,4.3,17.7,3.7,26.9l0,0l0,0
		c2.3-3.1,4.9-9,4.9-9c4.4,25.6-14.3,49.1-39,49.1c-21.9,0-39.6-18.7-39.6-41.7c0-23,17.7-41.7,39.6-41.7c5.7,0,11.1,1.3,15.9,3.5
		C155.4,314.2,163.8,318.5,166.2,338.5z M381.6,428.9c30.7-24.1,36.1-53.2,36.6-54.2c7.6-9.1,5.5-18-4.5-18c-3.2,0-5.6,0.8-5.6,0.8
		s0-13.2-6.1-23.5c-4.7,5.3-17.8,15.8-35,24c-16.1,7.6-37.6,14.3-64.2,15.2h0c-7.5,0.3-12.1-0.9-14.7,7.8c-0.8,3.1-0.5,7.6,0.2,8.9
		c2.1,7.2,7.6,10.4,14.8,12.1c5.5,1.3,11.3,1.4,11.3,1.4c54,1.5,97.3-40.6,97.9-40.9c0.5-0.4,0.9-0.9,0.9-0.9s-0.5,1.1-0.5,1.2
		c-7.8,17.5-53,49.3-97.9,48.4l-0.1,0.1c-10.4,0-23.1-2.7-29.7-10.9c-10.4-12.9-5-34.4,11.6-34.9c0,0,3.8-0.1,5.5-0.1
		c41.1-1.3,78-16.4,104.4-47.9c3.6-4.5-0.4-10.7-8.3-10.9c-0.1,0-0.1,0-0.2-0.1c-9.3-10-17.5-13.5-24.8-17.2
		c-15.3-7.8-13.9-1.1-17.4-38.9c-1-10.2-2.9-24.1-11.8-29.4c-2.3-1.4-4.9-2-7.6-2c-2.6,0-3.9,0.5-4.4,0.7c-4.9,1.1-7.7,3.9-11.2,7.1
		c-16.5,15.2-29.7,11.1-49.4,10.9c-18.5-0.2-34.8,12.7-37.9,32.6l0,0c-1.5,10.4-0.5,20.9,1.1,25.6c0,0-5-3.3-7.4-6.3
		c2.9,18.1,19.4,29.9,19.4,29.9c-2.6,0.6-6.3,0.3-6.3,0.3c0,0,9.4,7.5,17.6,10.1c-2.1,1.3-12.9,11.9-18.4,26.6
		c-5.2,13.7-3.1,30.1-3.1,30.1l4.5-6.7c0,0-2.9,15,2.8,29.5c1.9-4.3,6-12,6-12s-0.7,16.1,7.1,29.3c0.2-3,1.4-10.8,1.4-10.8
		s4.4,13.7,14.7,23.4C292,456.2,342.9,459.3,381.6,428.9z"/>
	<path class="st3" d="M96.1,321.1c-0.2,0-14.9-10.9-17-14.4c-12.4-20.9,9.2-63.9,24.5-88.4c38-60.4,101.1-108.1,129.8-101.3
		l29.5,15.2c-11.4,6.7-22.5,15-29.1,20.5l-6.3,5.3c0,0-18.3,12.3-27.4,20.1c-36.5,31.1-72.4,79.4-85.8,125.9
		C114.3,304,103.3,309.4,96.1,321.1z"/>
	<path class="st4" d="M233.4,117L233.4,117c-28.7-6.8-91.9,40.9-129.8,101.3c0,0,0,0,0,0.1l0.2,0l30.2,23.8
		c33.2-52.7,74.9-79.9,76.1-80.7l-4.8-32.3l9-4.3l18,5.8l-1.4-6L233.4,117L233.4,117z"/>
	<path class="st5" d="M262.9,132.2l-29.1,20.5l-2,1.6l-25.8-21.1l-0.6-4l9-4.3c0.5,0.1,17.3,5.6,18,5.8l0.3-11.2l0.8-2.5l7.9-3
		C241.3,114,262.9,132.2,262.9,132.2z"/>
	<g>
		<path class="st6" d="M320.4,112.1c-19.3,0-40.9,10.1-57.5,20.1c-2.3,1.4-4.6,2.8-6.9,4.3l-8.7-7.3l3.2,11
			c-1.2,0.8-2.4,1.6-3.5,2.4l-17.9-5.5l11.9,9.9c-2.7,2.1-5.1,4-7.1,5.6l-28.5-23.5l1.5,10.5l20.7,18.2c0,0-18.3,12.3-27.4,20.1
			c-36.5,31.1-72.4,79.4-85.8,125.9l0.8-0.4c0.1-0.1,0.2-0.1,0.3-0.2c0.4-0.2,0.7-0.4,1.1-0.6c0.2-0.1,0.5-0.2,0.7-0.4
			c0.4-0.2,0.8-0.4,1.1-0.5c0.2-0.1,0.5-0.2,0.7-0.3c0.4-0.2,0.8-0.3,1.2-0.5c0.2-0.1,0.4-0.2,0.6-0.2c0.6-0.2,1.2-0.4,1.8-0.6
			c9.1-2.7,21.4-4.4,35.8,1.7c7.2-18.3,15.9-36.9,29.6-54.8c11.1-14.5,21.7-27.4,34.5-34.5c24.2-22.7,89.3-46.8,110.2-25.9
			c4.9-8.1,9.2-15.7,12.7-25.3C354.1,138.5,354.3,112.1,320.4,112.1z"/>
		<polygon class="st6" points="237.7,132.5 233.4,117 230.9,124.7 232.4,130.8 		"/>
	</g>
	<path class="st7" d="M408.1,357.5c0,0,0-13.2-6.1-23.5c-4.7,5.3-17.8,15.8-35,24c-16.1,7.6-37.6,14.3-64.2,15.2h0
		c-7.5,0.3-12.1-0.9-14.7,7.8c-0.2,0.7-0.3,1.6-0.4,2.4l0,0.1c0,0,0,0,0,0c0,0.3,0,0.6-0.1,0.8c0,0.8,0,1.5,0,2.1c0,0,0,0,0,0
		c0,0,0,0.1,0,0.1c0,0.4,0.1,0.7,0.1,1.1c0,0,0,0,0,0.1c0,0,0,0,0,0.1c0.2,1.4,0.4,2,0.5,2.1c0,0,0,0,0,0l0,0.1
		c2.1,7.1,7.6,10.3,14.8,11.9c5.5,1.3,11.3,1.4,11.3,1.4c44.1,1.2,81-26.6,93.4-37C408.1,363.4,408.3,361.3,408.1,357.5z
		 M281.6,122.2c10.5-4.9,21.8-8.7,32.6-9.8c-10.7,2.4-23.8,8-39.3,17.5c-0.4,0.2-36.7,24.7-58.9,46.8c-12.1,12-60.7,70.2-60.6,70.2
		c8.9-16.8,14.7-25,28.8-42.7c7.9-10,16.4-19.7,25.1-28.7c2.9-3,5.9-5.9,8.8-8.8l0,0l0,0C219.2,165.6,244.5,139.6,281.6,122.2z"/>
	<path class="st8" d="M381.6,428.9c-5.3,4.1-10.8,7.7-16.4,10.6c-13-4.9-20.9-15.4-20.9-15.4s11.1-2.6,26-10.2
		c18.1-9.2,35-22.5,47.9-39.2C417.7,375.7,412.3,404.8,381.6,428.9z M346.3,288.9c-6.3-4.5-16.7-0.9-19,6.5c3.6,0.2,7.5,2.9,7.2,6.4
		c2.6-2.5,6.2-3.9,9.8-3.8C342.7,295.2,343.5,290.5,346.3,288.9z M280.5,379c2-7.4,7.6-13.2,16.1-13.4c0,0,3.8-0.1,5.5-0.1
		c41.1-1.3,78-16.4,104.4-47.9c3.6-4.5-0.4-10.7-8.3-10.9c0,0-0.1,0-0.1,0c-1.3,1.4-1.6,4-3.8,7.8c-8,14-19.1,20.3-34,27.7
		c-45.4,22.6-69,12.1-78.4,25.9C279.2,372.2,279.2,376.7,280.5,379C280.5,379,280.5,379,280.5,379z M362.7,284.1
		c-4.3-3.1-4.5-8.6-6.9-33.7c-0.8-8-2.1-18.3-7-25c-1-0.9-2.4-1.9-4.5-1.9c-3.1-0.1-6.6,3.1-8.6,5.3c-5.6,8.1-11,13.4-20.6,17.9
		c-9.6,4.4-18.8,5.9-28.3,5.6c-7-0.2-13.1-1.4-19-1.4c-11.1-0.2-20.7,3.4-27.7,12.3c-4.8,6.1-6.7,12.5-7.3,20.1
		c0,0.9,0.1,1.8,0.1,2.6c0.1,1.2,0.2,2.4,0.3,3.5c0.5,3.9,1.2,5.9,1.2,5.9c0,0,0,0.1,0,0.1c0.1,0.2,0.1,0.4,0.2,0.5
		c0,0-5-3.3-7.4-6.3c2.4,15.1,14.3,25.8,18.2,29c0.2,0.2,0.5,0.4,0.7,0.5c0,0,0,0,0.1,0.1c0.3,0.3,0.5,0.4,0.5,0.4
		c-2.6,0.6-6.3,0.3-6.3,0.3c0,0,9.4,7.5,17.6,10.1c10.8-9.2,23.1-12.7,33.2-13.8c6.1-3.8,12.7-7.5,19.7-11.1
		c-2.1-13.3,9.7-26.7,24.5-28c11.2-0.8,16.7,4.2,20.6,9.6c2.1-0.7,4.5-1.4,7.2-2.2C362.9,284.3,362.8,284.2,362.7,284.1z
		 M368.1,373.7c-0.1,0-0.2,0-0.4,0.1c-4.5,1-50.6,18.9-79.8,9.8c-0.1,1.6-0.1,5,0.6,6.4c0,0,0,0,0,0c4.4,0.9,10,1.5,16.5,1.5
		C343.3,391.4,370.9,374,368.1,373.7z M153.2,370.1C153.2,370.1,153.3,370.1,153.2,370.1c2.4-2.5,3.4-6,2.8-9.4
		c-0.9-4.8-6.3-5.8-10-9.6c-0.1-0.1-0.1-0.1-0.2-0.2c-0.1-0.1-0.1-0.1-0.2-0.2c0,0,0,0,0,0c-1.6-1.9-2.2-4-2.1-5.9
		c0.3-4.9,4.7-6.3,7-5.4c0,0,2.7,0.6,4.8,3.6c0,0,0,0,0,0c-0.3-1-0.3-2.5-1.9-4.9c-2.7-3.8-8.9-7.7-17.6-5.8h0
		c-1.6,0.3-0.7,0.1-2.3,0.6c-0.2,0.1-0.5,0.1-0.7,0.2c-0.5,0.2-1,0.4-1.4,0.6l0,0c-0.2,0.1-1.5,0.7-3.1,1.9
		C118.5,348.4,135.2,371.5,153.2,370.1z"/>
	<path class="st9" d="M298.5,291.9c0.8,1.2,1.1,2.1,0.7,2.5c-0.7,0.8-3.1-0.3-6.6-1.7c-9-3.4-15.7-3.9-27.5,0.6
		c-3,1.1-5.1,2-6.1,1.9c-1.7-0.2-0.1-3.3,3.6-6.2c7.3-5.8,17.3-7.6,25.8-4.4C292.1,285.9,296.3,288.7,298.5,291.9z M296.7,301.1
		c-2.5-1.9-7-3.2-11.8-2.4c-1,0.2-1.9,0.5-2.8,0.7c-0.3,0.1-0.6,0.2-1,0.3c-2,0.8-3.7,1.7-5.3,3.3c-1.9,1.8-2.4,3.5-1.9,3.9
		c0.5,0.4,1.8-0.2,3.9-1c6.8-2.8,11.6-2.9,16.1-2.6c2.2,0.1,3.7,0.3,4-0.3C298.2,302.7,297.7,301.9,296.7,301.1z M150.9,335.9
		L150.9,335.9L150.9,335.9c1.1,0.9,2,1.8,2.6,2.7c2.1,2.9,1.4,4.7,2.3,5.5c0.3,0.3,0.7,0.4,1.2,0.2c1.2-0.5,1.8-2.4,1.9-3.7l0,0l0,0
		l0,0c0.3-3.1-1.4-6.7-3.6-9.2l0,0l0,0l0,0c-1.4-1.6-3.1-3-5.2-4.2c-2.1-1.2-4.6-2.1-7.3-2.5c-4.7-0.7-9.3,0.2-10.5,0.6l0,0
		c-0.7,0.2-1.5,0.4-2.2,0.6c-7.6,3-12.6,8.4-14.9,15.6l0,0l0,0c-0.8,2.7-1.2,5.4-1.2,7.9c0,2.1,0.2,4.1,0.6,5.8v0l0,0l0,0
		c0.6,2.9,2,6.3,4,8.4l0,0l0,0l0,0c2.6,2.8,5.4,2.2,4.2-0.3c-0.3-0.7-1.8-3.6-2-8.9c-0.1-3.5,0.3-7.1,1.6-10.4
		c0.7-1.8,1.7-3.5,2.9-5.1c2.6-3.2,5.8-4.6,6.1-4.8l0,0c0.4-0.2,0.9-0.4,1.4-0.6c0.2-0.1,0.4-0.2,0.7-0.2c1.6-0.5,0.7-0.3,2.3-0.6h0
		C142,331.5,147.2,332.9,150.9,335.9z M149.6,347.6c-0.8-0.7-1.2-1.2-1.5-2.1c-0.3-1.6-0.2-2.5,1.2-3.5c1-0.7,1.9-1.1,1.9-1.5
		c0-0.9-3.5-1.7-5.9,0.7c-2,2.2-2.7,6.7,0.6,10.2c3.6,3.9,9.3,4.8,10.1,9.7c0.1,0.7,0.2,1.5,0.1,2.2c0,0.9-0.3,2.1-0.3,2.2
		c-1.1,4.7-5.6,9.3-13,8.1c-1.4-0.2-2.3-0.4-2.5,0c-0.6,0.8,2.6,4.4,8.4,4.3c5.7-0.1,11.4-4.4,13.2-10.8c0-0.1,0.6-1.9,0.6-3.5
		c0.1-1.2,0-2.4-0.2-3.7C160.8,351.7,152.7,350,149.6,347.6z M348.3,288.8c-2.3-0.4-4.5,1.9-5,5c-0.5,3.1,1,5.9,3.2,6.2
		c2.3,0.4,4.5-1.9,5-5C352,291.9,350.5,289.2,348.3,288.8z M323.5,297.8c-1.2,2.3,0.3,5.5,3.4,7.2c3.1,1.7,6.6,1.2,7.9-1
		c1.2-2.3-0.3-5.5-3.4-7.2C328.3,295.1,324.8,295.6,323.5,297.8z M232.9,206.4c42.6-27.6,85.2-30.8,99.8-19.6c0,0,0,0,0,0
		c0-0.1-0.3-0.7-0.4-0.9l0,0c-3.7-7.9-12.3-13.4-20-15.6c1.4,1.4,3.3,4,4.1,5.5c-5.8-4-13.5-7.5-21.6-9.2c0,0,1,0.7,1.1,0.8
		c1.6,1.5,3.7,3.9,4.6,5.9c-7.7-3.1-17.4-4.8-25.8-3.2c-0.1,0-1,0.2-1,0.2s1.1,0.3,1.3,0.3c2.8,0.8,6.7,2.5,8.4,4.8
		c-13.8-2.4-29.1,0.3-37.3,4.8c1.1,0,1,0,1.9,0c3,0.1,9.1,0.5,11.7,2.1c-8.7,1.8-21.4,5.7-28.2,11.5c1.2-0.1,8-1,10.8-0.6
		C205,214.9,188,247.3,188,247.3l0,0C199,232.9,213.3,219.1,232.9,206.4z"/>
	<path class="st1" d="M333.4,266.8c-0.1-2.9,0.4-7.8,3.2-8.7l0,0c0,0,0,0,0,0l0,0c4.7-1.6,11,10.5,11.3,21.2
		c-3.7-1.9-8.1-2.7-12.6-2.3C334.1,273.6,333.6,270.3,333.4,266.8z"/>
</g>
<g>
	<path class="st10" d="M35.4,16.2h126.9c8,0,14.5,6.5,14.5,14.5v48.4c0,8-6.5,14.5-14.5,14.5h-45.5L123,109L95.5,93.7H35.4
		c-8,0-14.5-6.5-14.5-14.5V30.7C20.8,22.8,27.3,16.2,35.4,16.2z"/>
	<path class="st7" d="M28.7,29.4c0.9-1.2,2.2-1.8,4-2c3.3-0.3,5.1,1.3,5.5,4.6c2,13.3,4.1,24.6,6.4,33.8l14-26.6
		c1.3-2.4,2.9-3.7,4.8-3.8c2.8-0.2,4.5,1.6,5.2,5.4c1.6,8.5,3.6,15.7,6.1,21.8c1.7-16.2,4.5-27.9,8.4-35.1c1-1.8,2.4-2.7,4.2-2.8
		c1.5-0.1,2.8,0.3,4,1.3c1.2,1,1.8,2.2,2,3.6c0.1,1.1-0.1,2.1-0.6,3.1c-2.5,4.6-4.5,12.3-6.2,23c-1.6,10.4-2.2,18.5-1.8,24.3
		c0.1,1.6-0.1,3-0.8,4.2c-0.8,1.4-1.9,2.2-3.4,2.3c-1.7,0.1-3.4-0.6-5-2.4C69.6,78.1,64.9,69,61.4,57c-4.1,8.2-7.2,14.3-9.2,18.4
		c-3.8,7.2-6.9,10.9-9.6,11.1c-1.7,0.1-3.2-1.3-4.5-4.4c-3.3-8.3-6.8-24.5-10.5-48.4C27.5,32,27.8,30.5,28.7,29.4z"/>
	<path class="st7" d="M165.7,39.4c-2.3-4-5.7-6.4-10.2-7.4c-1.2-0.3-2.4-0.4-3.4-0.4c-6.1,0-11.1,3.2-15,9.6c-3.3,5.4-5,11.4-5,18
		c0,4.9,1,9.1,3.1,12.6c2.3,4,5.7,6.4,10.2,7.4c1.2,0.3,2.4,0.4,3.4,0.4c6.2,0,11.2-3.2,15-9.6c3.3-5.5,5-11.5,5-18
		C168.8,47,167.7,42.8,165.7,39.4L165.7,39.4z M157.7,57c-0.9,4.2-2.5,7.3-4.8,9.4c-1.8,1.7-3.6,2.4-5.2,2c-1.5-0.3-2.8-1.7-3.8-4.1
		c-0.8-2-1.1-4-1.1-5.8c0-1.6,0.1-3.2,0.4-4.7c0.6-2.6,1.7-5.2,3.4-7.6c2.1-3.1,4.3-4.4,6.6-4c1.5,0.3,2.8,1.7,3.8,4.1
		c0.8,2,1.1,4,1.1,5.8C158.1,54,157.9,55.6,157.7,57L157.7,57z"/>
	<path class="st7" d="M125.7,39.4c-2.3-4-5.7-6.4-10.2-7.4c-1.2-0.3-2.4-0.4-3.4-0.4c-6.1,0-11.1,3.2-15,9.6c-3.3,5.4-5,11.4-5,18
		c0,4.9,1,9.1,3.1,12.6c2.3,4,5.7,6.4,10.2,7.4c1.2,0.3,2.4,0.4,3.4,0.4c6.2,0,11.2-3.2,15-9.6c3.3-5.5,5-11.5,5-18
		C128.8,47,127.8,42.8,125.7,39.4L125.7,39.4z M117.7,57c-0.9,4.2-2.5,7.3-4.8,9.4c-1.8,1.7-3.6,2.4-5.2,2c-1.5-0.3-2.8-1.7-3.8-4.1
		c-0.8-2-1.1-4-1.1-5.8c0-1.6,0.1-3.2,0.4-4.7c0.6-2.6,1.7-5.2,3.4-7.6c2.1-3.1,4.3-4.4,6.6-4c1.5,0.3,2.8,1.7,3.8,4.1
		c0.8,2,1.1,4,1.1,5.8C118.1,54,118,55.6,117.7,57L117.7,57z"/>
	<g>
		<g>
			<path d="M192.9,38.8c-4.3,4.2-6.4,9.6-6.4,16.1c0,6.9,2.1,12.6,6.3,16.9c4.2,4.3,9.7,6.4,16.5,6.4c2,0,4.2-0.3,6.6-1V66.9
				c-2.2,0.6-4.1,1-5.8,1c-3.4,0-6.1-1.1-8.1-3.4c-2-2.3-3.1-5.4-3.1-9.2c0-3.6,1-6.6,3-8.9c2-2.4,4.5-3.5,7.6-3.5
				c2,0,4.1,0.3,6.4,1V33.4c-2.1-0.6-4.5-0.8-6.9-0.8C202.5,32.5,197.2,34.6,192.9,38.8z M237.1,32.5c-5.9,0-10.5,2-13.8,5.9
				s-4.9,9.4-4.9,16.4c0,7.6,1.7,13.4,4.9,17.4s8,6.1,14.3,6.1c6.1,0,10.7-2,14-6.1s4.9-9.7,4.9-17s-1.7-12.9-5-16.8
				C248.2,34.5,243.4,32.5,237.1,32.5z M242.2,65.6c-1.1,1.8-2.9,2.7-5,2.7c-2,0-3.6-0.9-4.7-2.7c-1.1-1.8-1.6-5.4-1.6-10.8
				c0-8.3,2.1-12.5,6.4-12.5c4.5,0,6.8,4.2,6.8,12.7C244,60.3,243.3,63.9,242.2,65.6z M288,33.7l-2.3,9.8c-0.6,2.5-1.1,5-1.7,7.6
				l-1.3,6.8c-1.2-6.8-2.9-14.8-5-24.2H263l-5.5,43.4h11.1l3-29.9l7.6,29.9h7.9l7.3-29.8l3.1,29.8H309l-5.9-43.4L288,33.7L288,33.7z
				 M341.1,33.7l-2.3,9.8c-0.6,2.5-1.1,5-1.7,7.6l-1.3,6.8c-1.2-6.8-2.9-14.8-5-24.2h-14.8l-5.5,43.4h11.1l3-29.9l7.6,29.9h7.9
				l7.2-29.8l3.1,29.8h11.6l-5.9-43.4H341.1z M377.2,60h10.4v-9h-10.4v-8h12v-9.2h-23.7v43.4h23.8v-9.2h-12V60z M422.2,53.1
				c1.2-2,1.8-4,1.8-6.1c0-4.1-1.6-7.3-4.8-9.7c-3.2-2.4-7.6-3.6-13.1-3.6h-13.6v43.4h11.7V57.4h0.2l9.5,19.8h12.4L417,57.6
				C419.2,56.5,421,55.1,422.2,53.1z M404.2,52.4V42.1c2.8,0.1,4.8,0.5,6,1.4c1.2,0.9,1.8,2.3,1.8,4.3
				C412,50.8,409.4,52.3,404.2,52.4z M431,38.8c-4.3,4.2-6.4,9.6-6.4,16.1c0,6.9,2.1,12.6,6.3,16.9c4.2,4.3,9.7,6.4,16.5,6.4
				c2,0,4.2-0.3,6.6-1V66.9c-2.2,0.6-4.1,1-5.8,1c-3.4,0-6.1-1.1-8.1-3.4c-2-2.3-3.1-5.4-3.1-9.2c0-3.6,1-6.6,3-8.9
				c2-2.4,4.5-3.5,7.6-3.5c2,0,4.1,0.3,6.4,1V33.4c-2.1-0.6-4.5-0.8-6.9-0.8C440.6,32.5,435.2,34.6,431,38.8z M469,67.8v-7.9h10.4
				v-9H469v-8h12v-9.2h-23.7v43.4h23.8v-9.2L469,67.8L469,67.8z"/>
		</g>
	</g>
</g>
</svg>
