<?xml version="1.0" encoding="utf-8"?>
<!-- Generator: Adobe Illustrator 19.1.0, SVG Export Plug-In . SVG Version: 6.00 Build 0)  -->
<svg version="1.1" id="Layer_1" xmlns="http://www.w3.org/2000/svg" xmlns:xlink="http://www.w3.org/1999/xlink" x="0px" y="0px"
	 viewBox="0 0 500 500" style="enable-background:new 0 0 500 500;" xml:space="preserve">
<style type="text/css">
	.st0{fill:url(#SVGID_1_);}
	.st1{fill:#684C46;}
	.st2{fill:#F5DCBA;}
	.st3{fill:#0788BF;}
	.st4{fill:#46B8E3;}
	.st5{fill:#FFD14F;}
	.st6{fill:#122030;}
	.st7{fill:#FFFFFF;}
	.st8{fill:#EABE8D;}
	.st9{fill:#9C7356;}
	.st10{fill:#9B5C8F;}
</style>
<linearGradient id="SVGID_1_" gradientUnits="userSpaceOnUse" x1="-1" y1="250" x2="501" y2="250" gradientTransform="matrix(4.489659e-11 1 -1 4.489659e-11 500 0)">
	<stop  offset="0" style="stop-color:#0087C1"/>
	<stop  offset="1" style="stop-color:#3FB7E5"/>
</linearGradient>
<rect x="-1" y="-1" class="st0" width="502" height="502"/>
<g>
	<path class="st1" d="M425,374.1c-0.3,1-27.9,107-136.3,107c-93.7,0-138.2-81.5-138.2-81.5c-6.8,0.4-13.4-0.7-19.5-2.9
		c-27.5-10.1-40.7-41.6-31.2-68l-15.1-11.5C26.2,272.5,192,68.5,250.7,114.6c0.3,0.2,14,11.3,14,11.3c21.1-12.8,41.9-19.7,58.9-19.7
		c12,0,22.1,3.5,28.9,10.8c15.2,16.5,9.8,48-11,79.8c4.5,4.2,8.2,10,10.8,15.7c6.6,5.1,10.9,12.8,13,23.6
		c2.4,11.9,2.9,28.9,4.3,36.1c5.6,2.5,3.2,1.4,9.2,4.3c6.2,3.1,13.8,6.9,22.2,15c14.9,3.7,20.6,19.6,11.9,30.4
		c-0.2,0.3-1.3,1.5-2.4,2.8c0.3,0.7,3.1,5.3,5.2,14.7c6.2,1.5,11.1,5.3,13.7,10.8C433.8,361.1,425,374.1,425,374.1z M382,454.2v4.4
		h1.7v-4.4h1.7v-1.4h-5.2v1.4H382z M386,452.8v5.8h1.6v-4.2l1.3,4.2h1.3l1.3-4.2v4.2h1.6v-5.8h-2.4l-1,3.4l-1.1-3.4H386z"/>
	<path class="st2" d="M172.7,334.2L172.7,334.2L172.7,334.2c2.4-6,3.6-10.9,3.6-10.9c2.7,8.3,4.1,17,3.5,25.7l0,0l0,0
		c2.2-3,4.6-8.6,4.6-8.6c4.2,24.5-13.7,47-37.3,47c-20.9,0-37.9-17.9-37.9-39.9c0-22.1,17-39.9,37.9-39.9c5.4,0,10.6,1.2,15.3,3.4
		C162.3,310.9,170.4,315,172.7,334.2z M379.1,420.7c29.4-23.1,34.5-50.9,35-51.9c7.2-8.7,5.3-17.2-4.3-17.2c-3,0-5.3,0.8-5.3,0.8
		s0-12.7-5.8-22.5c-4.5,5.1-17,15.1-33.5,22.9c-15.4,7.3-36,13.7-61.5,14.6h0c-7.1,0.3-11.6-0.9-14,7.5c-0.8,2.9-0.5,7.3,0.1,8.6
		c2,6.9,7.3,9.9,14.2,11.5c5.2,1.2,10.8,1.3,10.8,1.3c51.7,1.5,93.3-38.9,93.7-39.2c0.5-0.4,0.9-0.9,0.9-0.9s-0.5,1.1-0.5,1.2
		c-7.5,16.8-50.7,47.3-93.8,46.4l-0.1,0c-10,0-22.1-2.6-28.4-10.4c-10-12.4-4.8-32.9,11.1-33.4c0,0,3.7-0.1,5.3-0.1
		c39.4-1.2,74.7-15.7,100-45.9c3.5-4.3-0.4-10.3-7.9-10.4c-0.1,0-0.1,0-0.2-0.1c-8.9-9.6-16.8-13-23.8-16.5
		c-14.7-7.5-13.3-1-16.7-37.2c-0.9-9.8-2.8-23.1-11.3-28.2c-2.2-1.3-4.7-1.9-7.3-1.9c-2.5,0-3.7,0.5-4.2,0.6
		c-4.7,1-7.4,3.7-10.7,6.8c-15.8,14.6-28.5,10.6-47.3,10.5c-17.7-0.2-33.4,12.2-36.4,31.2l0,0c-1.5,9.9-0.5,20,1,24.6
		c0,0-4.8-3.2-7.1-6c2.8,17.3,18.6,28.7,18.6,28.7c-2.5,0.6-6.1,0.3-6.1,0.3c0,0,9,7.1,16.9,9.6c-2,1.3-12.3,11.4-17.7,25.5
		c-5,13.1-2.9,28.8-2.9,28.8l4.3-6.4c0,0-2.8,14.4,2.6,28.3c1.8-4.1,5.8-11.5,5.8-11.5s-0.6,15.4,6.8,28c0.2-2.9,1.3-10.3,1.3-10.3
		s4.3,13.2,14.1,22.4C293.2,446.9,342,449.9,379.1,420.7z"/>
	<path class="st3" d="M105.5,317.5c-0.1,0-14.3-10.4-16.3-13.8c-11.9-20.1,8.8-61.2,23.5-84.7c36.4-57.9,96.9-103.5,124.4-97
		l28.2,14.6c-11,6.4-21.6,14.4-27.9,19.6l-6,5c0,0-17.5,11.8-26.3,19.3c-35,29.8-69.4,76-82.2,120.6
		C123,301.1,112.5,306.3,105.5,317.5z"/>
	<path class="st4" d="M237.1,122L237.1,122c-27.5-6.5-88,39.1-124.4,97c0,0,0,0,0,0.1l0.1,0l29,22.8c31.8-50.5,71.8-76.5,72.9-77.3
		l-4.6-30.9l8.6-4.1l17.3,5.6l-1.3-5.8L237.1,122L237.1,122z"/>
	<path class="st5" d="M265.3,136.5l-27.9,19.6l-2,1.5l-24.7-20.2l-0.6-3.8l8.6-4.1c0.4,0.1,16.6,5.4,17.3,5.6l0.3-10.7l0.8-2.4
		l7.6-2.9C244.7,119.1,265.3,136.5,265.3,136.5z"/>
	<g>
		<path class="st6" d="M320.4,117.3c-18.5,0-39.2,9.7-55.1,19.3c-2.2,1.3-4.4,2.7-6.6,4.1l-8.3-7l3,10.5c-1.1,0.8-2.3,1.6-3.3,2.3
			l-17.2-5.2l11.4,9.5c-2.6,2-4.9,3.8-6.8,5.4l-27.3-22.5l1.4,10.1l19.8,17.5c0,0-17.5,11.8-26.3,19.3c-35,29.8-69.4,76-82.2,120.6
			l0.7-0.4c0.1-0.1,0.2-0.1,0.3-0.2c0.4-0.2,0.7-0.4,1.1-0.6c0.2-0.1,0.5-0.2,0.7-0.3c0.4-0.2,0.7-0.3,1.1-0.5
			c0.2-0.1,0.4-0.2,0.6-0.3c0.4-0.2,0.8-0.3,1.2-0.5c0.2-0.1,0.4-0.1,0.5-0.2c0.6-0.2,1.2-0.4,1.7-0.6c8.7-2.6,20.5-4.3,34.3,1.6
			c6.9-17.5,15.2-35.3,28.3-52.4c10.6-13.9,20.8-26.3,33-33.1c23.2-21.8,85.6-44.8,105.6-24.8c4.7-7.7,8.8-15.1,12.2-24.2
			C352.7,142.6,352.9,117.3,320.4,117.3z"/>
		<polygon class="st6" points="241.2,136.8 237.1,122 234.7,129.4 236.1,135.2 		"/>
	</g>
	<path class="st7" d="M404.5,352.4c0,0,0-12.7-5.8-22.5c-4.5,5.1-17,15.1-33.5,22.9c-15.4,7.3-36,13.7-61.5,14.6h0
		c-7.1,0.3-11.6-0.9-14,7.5c-0.2,0.7-0.3,1.5-0.4,2.3l0,0.1c0,0,0,0,0,0c0,0.3,0,0.5,0,0.8c0,0.8,0,1.4,0,2c0,0,0,0,0,0
		c0,0,0,0.1,0,0.1c0,0.4,0.1,0.7,0.1,1c0,0,0,0,0,0c0,0,0,0,0,0.1c0.2,1.3,0.4,1.9,0.5,2c0,0,0,0,0,0l0,0.1c2,6.8,7.3,9.8,14.2,11.4
		c5.2,1.2,10.8,1.3,10.8,1.3c42.2,1.2,77.6-25.5,89.5-35.5C404.5,358,404.6,356,404.5,352.4z M283.3,127c10.1-4.6,20.9-8.3,31.2-9.4
		c-10.3,2.3-22.8,7.7-37.7,16.7c-0.4,0.2-35.2,23.7-56.4,44.8c-11.6,11.5-58.1,67.3-58.1,67.2c8.5-16.1,14.1-24,27.6-40.9
		c7.6-9.6,15.7-18.9,24.1-27.5c2.8-2.9,5.6-5.7,8.4-8.4l0,0l0,0C223.4,168.5,247.8,143.6,283.3,127z"/>
	<path class="st8" d="M379.1,420.7c-5,4-10.3,7.3-15.7,10.2c-12.4-4.7-20-14.8-20-14.8s10.7-2.5,24.9-9.8
		c17.3-8.8,33.5-21.5,45.9-37.5C413.6,369.8,408.5,397.6,379.1,420.7z M345.3,286.6c-6-4.3-16-0.9-18.2,6.2c3.5,0.2,7.2,2.8,6.9,6.2
		c2.5-2.4,5.9-3.7,9.3-3.7C341.8,292.7,342.6,288.1,345.3,286.6z M282.2,372.9c1.9-7,7.2-12.6,15.4-12.9c0,0,3.7-0.1,5.3-0.1
		c39.4-1.2,74.7-15.7,100-45.9c3.5-4.3-0.4-10.3-7.9-10.4c0,0-0.1,0-0.1,0c-1.3,1.3-1.5,3.8-3.6,7.5c-7.7,13.4-18.3,19.5-32.5,26.6
		c-43.5,21.7-66.1,11.6-75.1,24.8C281,366.4,280.9,370.7,282.2,372.9C282.2,372.9,282.2,372.9,282.2,372.9z M360.9,282
		c-4.2-3-4.3-8.2-6.6-32.3c-0.7-7.7-2-17.6-6.7-23.9c-1-0.8-2.3-1.8-4.3-1.8c-3-0.1-6.3,2.9-8.2,5.1c-5.4,7.8-10.6,12.8-19.7,17.2
		c-9.2,4.2-18,5.7-27.1,5.4c-6.7-0.2-12.5-1.3-18.2-1.4c-10.6-0.2-19.8,3.3-26.5,11.7c-4.6,5.8-6.4,11.9-7,19.3
		c0,0.9,0.1,1.7,0.1,2.5c0.1,1.2,0.2,2.3,0.3,3.3c0.5,3.7,1.1,5.6,1.1,5.6c0,0,0,0.1,0,0.1c0.1,0.2,0.1,0.4,0.2,0.5
		c0,0-4.8-3.2-7.1-6c2.3,14.5,13.7,24.7,17.4,27.8c0.2,0.2,0.4,0.3,0.6,0.5c0,0,0,0,0,0c0.3,0.2,0.5,0.4,0.5,0.4
		c-2.5,0.6-6.1,0.3-6.1,0.3c0,0,9,7.1,16.9,9.6c10.4-8.8,22.1-12.1,31.8-13.2c5.9-3.6,12.2-7.2,18.9-10.6
		c-2-12.7,9.3-25.6,23.5-26.8c10.7-0.8,16,4,19.7,9.2c2-0.7,4.3-1.4,6.9-2.1C361.2,282.2,361,282.2,360.9,282z M366.1,367.9
		c-0.1,0-0.2,0-0.4,0.1c-4.3,1-48.5,18.1-76.5,9.3c-0.1,1.5-0.1,4.7,0.5,6.1c0,0,0,0,0,0c4.2,0.8,9.6,1.4,15.8,1.4
		C342.3,384.8,368.8,368.1,366.1,367.9z M160.3,364.5C160.3,364.5,160.3,364.4,160.3,364.5c2.3-2.4,3.2-5.8,2.7-9
		c-0.8-4.6-6.1-5.6-9.5-9.2c-0.1-0.1-0.1-0.1-0.2-0.2c-0.1-0.1-0.1-0.1-0.2-0.2c0,0,0,0,0,0c-1.6-1.8-2.1-3.8-2-5.7
		c0.3-4.7,4.5-6.1,6.7-5.2c0,0,2.6,0.6,4.6,3.4c0,0,0,0,0,0c-0.3-0.9-0.2-2.4-1.8-4.6c-2.6-3.7-8.5-7.4-16.9-5.6h0
		c-1.6,0.3-0.7,0.1-2.2,0.6c-0.2,0.1-0.5,0.1-0.6,0.2c-0.5,0.2-0.9,0.4-1.4,0.6l0,0c-0.2,0.1-1.5,0.7-3,1.8
		C127,343.6,143,365.7,160.3,364.5z"/>
	<path class="st9" d="M299.4,289.5c0.8,1.2,1,2,0.7,2.4c-0.6,0.7-2.9-0.3-6.3-1.6c-8.7-3.2-15-3.7-26.3,0.6
		c-2.9,1.1-4.9,1.9-5.9,1.8c-1.6-0.2-0.1-3.1,3.4-5.9c7-5.6,16.5-7.3,24.7-4.2C293.3,283.8,297.3,286.4,299.4,289.5z M297.7,298.4
		c-2.4-1.8-6.7-3-11.3-2.3c-1,0.1-1.8,0.4-2.7,0.7c-0.3,0.1-0.6,0.2-0.9,0.3c-1.9,0.8-3.5,1.6-5.1,3.2c-1.8,1.7-2.3,3.4-1.8,3.8
		c0.5,0.4,1.8-0.2,3.7-1c6.5-2.7,11.1-2.8,15.4-2.5c2.1,0.1,3.5,0.3,3.8-0.3C299.1,299.9,298.7,299.1,297.7,298.4z M158.1,331.6
		L158.1,331.6L158.1,331.6c1.1,0.8,1.9,1.8,2.5,2.6c2,2.8,1.4,4.5,2.2,5.3c0.3,0.3,0.7,0.4,1.1,0.2c1.1-0.5,1.7-2.3,1.8-3.5l0,0l0,0
		l0,0c0.3-3-1.3-6.4-3.4-8.8l0,0l0,0l0,0c-1.3-1.5-3-2.9-5-4c-2-1.1-4.4-2-7-2.4c-4.5-0.7-8.9,0.2-10.1,0.6l0,0
		c-0.6,0.2-1.4,0.3-2.1,0.6c-7.3,2.8-12.1,8.1-14.2,15l0,0l0,0c-0.8,2.6-1.1,5.2-1.1,7.5c0,2,0.2,3.9,0.6,5.6v0l0,0l0,0
		c0.6,2.8,1.9,6,3.8,8.1l0,0l0,0l0,0c2.5,2.7,5.2,2.2,4-0.3c-0.3-0.7-1.8-3.5-2-8.6c-0.1-3.3,0.3-6.8,1.5-9.9
		c0.7-1.7,1.6-3.4,2.8-4.9c2.5-3,5.5-4.4,5.9-4.6l0,0c0.4-0.2,0.9-0.4,1.4-0.6c0.2-0.1,0.4-0.1,0.6-0.2c1.5-0.4,0.7-0.2,2.2-0.6h0
		C149.5,327.4,154.5,328.7,158.1,331.6z M156.8,342.9c-0.8-0.6-1.2-1.2-1.4-2c-0.3-1.5-0.2-2.4,1.1-3.3c1-0.7,1.8-1,1.8-1.5
		c0-0.8-3.3-1.7-5.7,0.7c-2,2.1-2.6,6.4,0.5,9.8c3.5,3.7,8.9,4.6,9.7,9.3c0.1,0.7,0.2,1.4,0.1,2.1c0,0.8-0.3,2.1-0.3,2.1
		c-1,4.5-5.4,8.9-12.5,7.8c-1.3-0.2-2.2-0.4-2.4,0c-0.5,0.8,2.5,4.3,8.1,4.1c5.5-0.1,10.9-4.2,12.6-10.3c0-0.1,0.5-1.8,0.6-3.4
		c0.1-1.2,0-2.3-0.2-3.6C167.6,346.8,159.7,345.2,156.8,342.9z M347.1,286.5c-2.2-0.3-4.3,1.8-4.7,4.7c-0.5,3,0.9,5.6,3.1,6
		c2.2,0.3,4.3-1.8,4.7-4.7C350.7,289.6,349.3,286.9,347.1,286.5z M323.4,295.2c-1.2,2.2,0.3,5.2,3.2,6.9c3,1.6,6.3,1.2,7.5-1
		c1.2-2.2-0.3-5.2-3.2-6.9C328,292.6,324.6,293,323.4,295.2z M236.6,207.6c40.8-26.5,81.6-29.5,95.6-18.8c0,0,0,0,0,0
		c0-0.1-0.3-0.7-0.3-0.9l0,0c-3.5-7.5-11.8-12.8-19.2-14.9c1.3,1.3,3.2,3.8,3.9,5.3c-5.6-3.8-13-7.2-20.7-8.8c0,0,0.9,0.7,1.1,0.8
		c1.5,1.4,3.6,3.7,4.4,5.6c-7.4-3-16.7-4.6-24.7-3.1c-0.1,0-1,0.2-1,0.2s1,0.3,1.3,0.3c2.6,0.8,6.4,2.4,8.1,4.6
		c-13.3-2.3-27.8,0.2-35.7,4.6c1,0,1,0,1.9,0c2.9,0.1,8.7,0.5,11.2,2c-8.4,1.7-20.5,5.4-27,11c1.1-0.1,7.7-1,10.3-0.5
		c-35.8,20.5-52.2,51.5-52.2,51.5l0,0C204.2,233,217.9,219.7,236.6,207.6z"/>
	<path class="st1" d="M332.9,265.4c-0.1-2.8,0.4-7.5,3-8.3l0,0c0,0,0,0,0,0l0,0c4.5-1.6,10.5,10,10.8,20.3
		c-3.6-1.8-7.8-2.6-12.1-2.2C333.5,271.9,333,268.8,332.9,265.4z"/>
</g>
<g>
	<path class="st10" d="M35.4,19.2h126.9c8,0,14.5,6.5,14.5,14.5v48.4c0,8-6.5,14.5-14.5,14.5h-45.5L123,112L95.5,96.7H35.4
		c-8,0-14.5-6.5-14.5-14.5V33.7C20.8,25.8,27.3,19.2,35.4,19.2z"/>
	<path class="st7" d="M28.7,32.4c0.9-1.2,2.2-1.8,4-2c3.3-0.3,5.1,1.3,5.5,4.6c2,13.3,4.1,24.6,6.4,33.8l14-26.6
		c1.3-2.4,2.9-3.7,4.8-3.8c2.8-0.2,4.5,1.6,5.2,5.4c1.6,8.5,3.6,15.7,6.1,21.8c1.7-16.2,4.5-27.9,8.4-35.1c1-1.8,2.4-2.7,4.2-2.8
		c1.5-0.1,2.8,0.3,4,1.3c1.2,1,1.8,2.2,2,3.6c0.1,1.1-0.1,2.1-0.6,3.1c-2.5,4.6-4.5,12.3-6.2,23c-1.6,10.4-2.2,18.5-1.8,24.3
		c0.1,1.6-0.1,3-0.8,4.2c-0.8,1.4-1.9,2.2-3.4,2.3c-1.7,0.1-3.4-0.6-5-2.4C69.6,81.1,64.9,72,61.4,60c-4.1,8.2-7.2,14.3-9.2,18.4
		c-3.8,7.2-6.9,10.9-9.6,11.1c-1.7,0.1-3.2-1.3-4.5-4.4c-3.3-8.3-6.8-24.5-10.5-48.4C27.5,35,27.8,33.5,28.7,32.4z"/>
	<path class="st7" d="M165.7,42.4c-2.3-4-5.7-6.4-10.2-7.4c-1.2-0.3-2.4-0.4-3.4-0.4c-6.1,0-11.1,3.2-15,9.6c-3.3,5.4-5,11.4-5,18
		c0,4.9,1,9.1,3.1,12.6c2.3,4,5.7,6.4,10.2,7.4c1.2,0.3,2.4,0.4,3.4,0.4c6.2,0,11.2-3.2,15-9.6c3.3-5.5,5-11.5,5-18
		C168.8,50,167.7,45.8,165.7,42.4L165.7,42.4z M157.7,60c-0.9,4.2-2.5,7.3-4.8,9.4c-1.8,1.7-3.6,2.4-5.2,2c-1.5-0.3-2.8-1.7-3.8-4.1
		c-0.8-2-1.1-4-1.1-5.8c0-1.6,0.1-3.2,0.4-4.7c0.6-2.6,1.7-5.2,3.4-7.6c2.1-3.1,4.3-4.4,6.6-4c1.5,0.3,2.8,1.7,3.8,4.1
		c0.8,2,1.1,4,1.1,5.8C158.1,57,157.9,58.6,157.7,60L157.7,60z"/>
	<path class="st7" d="M125.7,42.4c-2.3-4-5.7-6.4-10.2-7.4c-1.2-0.3-2.4-0.4-3.4-0.4c-6.1,0-11.1,3.2-15,9.6c-3.3,5.4-5,11.4-5,18
		c0,4.9,1,9.1,3.1,12.6c2.3,4,5.7,6.4,10.2,7.4c1.2,0.3,2.4,0.4,3.4,0.4c6.2,0,11.2-3.2,15-9.6c3.3-5.5,5-11.5,5-18
		C128.8,50,127.8,45.8,125.7,42.4L125.7,42.4z M117.7,60c-0.9,4.2-2.5,7.3-4.8,9.4c-1.8,1.7-3.6,2.4-5.2,2c-1.5-0.3-2.8-1.7-3.8-4.1
		c-0.8-2-1.1-4-1.1-5.8c0-1.6,0.1-3.2,0.4-4.7c0.6-2.6,1.7-5.2,3.4-7.6c2.1-3.1,4.3-4.4,6.6-4c1.5,0.3,2.8,1.7,3.8,4.1
		c0.8,2,1.1,4,1.1,5.8C118.1,57,118,58.6,117.7,60L117.7,60z"/>
	<g>
		<g>
			<path d="M192.9,41.8c-4.3,4.2-6.4,9.6-6.4,16.1c0,6.9,2.1,12.6,6.3,16.9c4.2,4.3,9.7,6.4,16.5,6.4c2,0,4.2-0.3,6.6-1V69.9
				c-2.2,0.6-4.1,1-5.8,1c-3.4,0-6.1-1.1-8.1-3.4c-2-2.3-3.1-5.4-3.1-9.2c0-3.6,1-6.6,3-8.9c2-2.4,4.5-3.5,7.6-3.5
				c2,0,4.1,0.3,6.4,1V36.4c-2.1-0.6-4.5-0.8-6.9-0.8C202.5,35.5,197.2,37.6,192.9,41.8z M237.1,35.5c-5.9,0-10.5,2-13.8,5.9
				s-4.9,9.4-4.9,16.4c0,7.6,1.7,13.4,4.9,17.4s8,6.1,14.3,6.1c6.1,0,10.7-2,14-6.1s4.9-9.7,4.9-17s-1.7-12.9-5-16.8
				C248.2,37.5,243.4,35.5,237.1,35.5z M242.2,68.6c-1.1,1.8-2.9,2.7-5,2.7c-2,0-3.6-0.9-4.7-2.7c-1.1-1.8-1.6-5.4-1.6-10.8
				c0-8.3,2.1-12.5,6.4-12.5c4.5,0,6.8,4.2,6.8,12.7C244,63.3,243.3,66.9,242.2,68.6z M288,36.7l-2.3,9.8c-0.6,2.5-1.1,5-1.7,7.6
				l-1.3,6.8c-1.2-6.8-2.9-14.8-5-24.2H263l-5.5,43.4h11.1l3-29.9l7.6,29.9h7.9l7.3-29.8l3.1,29.8H309l-5.9-43.4L288,36.7L288,36.7z
				 M341.1,36.7l-2.3,9.8c-0.6,2.5-1.1,5-1.7,7.6l-1.3,6.8c-1.2-6.8-2.9-14.8-5-24.2h-14.8l-5.5,43.4h11.1l3-29.9l7.6,29.9h7.9
				l7.2-29.8l3.1,29.8h11.6l-5.9-43.4H341.1z M377.2,63h10.4v-9h-10.4v-8h12v-9.2h-23.7v43.4h23.8v-9.2h-12V63z M422.2,56.1
				c1.2-2,1.8-4,1.8-6.1c0-4.1-1.6-7.3-4.8-9.7c-3.2-2.4-7.6-3.6-13.1-3.6h-13.6v43.4h11.7V60.4h0.2l9.5,19.8h12.4L417,60.6
				C419.2,59.5,421,58.1,422.2,56.1z M404.2,55.4V45.1c2.8,0.1,4.8,0.5,6,1.4c1.2,0.9,1.8,2.3,1.8,4.3
				C412,53.8,409.4,55.3,404.2,55.4z M431,41.8c-4.3,4.2-6.4,9.6-6.4,16.1c0,6.9,2.1,12.6,6.3,16.9c4.2,4.3,9.7,6.4,16.5,6.4
				c2,0,4.2-0.3,6.6-1V69.9c-2.2,0.6-4.1,1-5.8,1c-3.4,0-6.1-1.1-8.1-3.4c-2-2.3-3.1-5.4-3.1-9.2c0-3.6,1-6.6,3-8.9
				c2-2.4,4.5-3.5,7.6-3.5c2,0,4.1,0.3,6.4,1V36.4c-2.1-0.6-4.5-0.8-6.9-0.8C440.6,35.5,435.2,37.6,431,41.8z M469,70.8v-7.9h10.4
				v-9H469v-8h12v-9.2h-23.7v43.4h23.8v-9.2L469,70.8L469,70.8z"/>
		</g>
	</g>
</g>
</svg>
